<svg xmlns="http://www.w3.org/2000/svg" viewBox="0 0 1090 270"><defs><style>.cls-1{fill:#010101;}</style></defs><title>Asset 3</title><g id="Layer_2" data-name="Layer 2"><g id="Layer_1-2" data-name="Layer 1"><path class="cls-1" d="M381.87,158.13a4.4,4.4,0,0,0,2.12.51h9.73a2.39,2.39,0,0,0,1.87-.77,5.2,5.2,0,0,0,1.06-1.86l3.66-9.95a20.11,20.11,0,0,0,1.13-4.72q.18-2,.18-4.35V108.62A2.26,2.26,0,0,0,399,106h-10.9a2.26,2.26,0,0,0-2.63,2.63v26.91l-4.24-9.21a3.69,3.69,0,0,0-1.54-1.75,4.9,4.9,0,0,0-2.34-.51h-3.07a4.89,4.89,0,0,0-2.34.51,3.68,3.68,0,0,0-1.54,1.75l-4.24,9.21V108.62a2.26,2.26,0,0,0-2.63-2.63H352.25a2.26,2.26,0,0,0-2.63,2.63v28.23q0,2.34.18,4.35a20,20,0,0,0,1.13,4.72L354.59,156a4,4,0,0,0,1.21,1.9,3,3,0,0,0,2,.73h9.65a3.43,3.43,0,0,0,2-.55,2.76,2.76,0,0,0,1.1-1.65L374,144.53a2,2,0,0,1,.55-1,1.22,1.22,0,0,1,.77-.26h.66a1.22,1.22,0,0,1,.77.26,2,2,0,0,1,.55,1l3.36,11.92A2.48,2.48,0,0,0,381.87,158.13Z"/><path class="cls-1" d="M433,159.74a47.79,47.79,0,0,0,11.23-1.1,18.8,18.8,0,0,0,6.95-3,10.21,10.21,0,0,0,3.51-4.68,17.93,17.93,0,0,0,1-6.11V119.89a17.93,17.93,0,0,0-1-6.11,10.43,10.43,0,0,0-3.51-4.72,18.42,18.42,0,0,0-6.95-3.07,58.21,58.21,0,0,0-22.49,0,18.43,18.43,0,0,0-7,3.07,10.43,10.43,0,0,0-3.51,4.72,17.93,17.93,0,0,0-1,6.11v24.94a17.92,17.92,0,0,0,1,6.11,10.21,10.21,0,0,0,3.51,4.68,18.81,18.81,0,0,0,7,3A48.26,48.26,0,0,0,433,159.74Zm-6.14-37.22a3.09,3.09,0,0,1,1.1-2.38q1.1-1,5-1t5,1a3.09,3.09,0,0,1,1.1,2.38v19.67a3.16,3.16,0,0,1-1.1,2.45q-1.1,1-5,1t-5-1a3.16,3.16,0,0,1-1.1-2.45Z"/><path class="cls-1" d="M502.26,129.9a5.7,5.7,0,0,0,3.18-3.11,13.39,13.39,0,0,0,.91-5.23V118.2a12.56,12.56,0,0,0-3.11-8.81q-3.11-3.4-11.3-3.4H467.59a2.26,2.26,0,0,0-2.63,2.63V156a2.25,2.25,0,0,0,2.63,2.63h11.26a2.26,2.26,0,0,0,2.63-2.63V141.68h10.24a2.64,2.64,0,0,1,2.16.77,3.75,3.75,0,0,1,.62,2.38V156a2.25,2.25,0,0,0,2.63,2.63h11.34a2.25,2.25,0,0,0,2.63-2.63v-15.5a10.76,10.76,0,0,0-2.45-7.39A9.63,9.63,0,0,0,502.26,129.9Zm-12.07-4.83a4.32,4.32,0,0,1-.66,2.45,2.87,2.87,0,0,1-2.56,1h-5.49v-9.36H487a2.87,2.87,0,0,1,2.56,1,4.32,4.32,0,0,1,.66,2.45Z"/><path class="cls-1" d="M560.15,109.65Q555.73,106,546.58,106H521.94a2.26,2.26,0,0,0-2.63,2.63V156a2.25,2.25,0,0,0,2.63,2.63h24.65q9.14,0,13.57-3.66t4.43-11.26V120.91Q564.58,113.3,560.15,109.65ZM548,141.24a3.79,3.79,0,0,1-.84,2.71,3.45,3.45,0,0,1-2.6.88h-8.7V120h8.7a3.54,3.54,0,0,1,2.6.84,3.65,3.65,0,0,1,.84,2.67Z"/><path class="cls-1" d="M608.9,106H591.05q-9.14,0-13.57,3.69T573.06,121v22.74q0,7.61,4.43,11.26t13.57,3.66H608.9a2.25,2.25,0,0,0,2.63-2.63v-8.7a2.25,2.25,0,0,0-2.63-2.63H594.2a5.51,5.51,0,0,1-3.36-.84,3.15,3.15,0,0,1-1.1-2.67v-17.4a3.37,3.37,0,0,1,1.1-2.74,5.18,5.18,0,0,1,3.36-.91h14.7a2.26,2.26,0,0,0,2.63-2.63v-8.85A2.26,2.26,0,0,0,608.9,106Z"/><path class="cls-1" d="M661.34,125,655,108.4a3.44,3.44,0,0,0-1.35-1.83,4.2,4.2,0,0,0-2.3-.59H631.65a4.34,4.34,0,0,0-2.38.59,3.43,3.43,0,0,0-1.35,1.83L621.55,125a55.48,55.48,0,0,0-2.16,6.65,21.6,21.6,0,0,0-.69,5V156a2.26,2.26,0,0,0,2.63,2.63h10.75a2.25,2.25,0,0,0,2.63-2.63V145.77h12.95V156a2.57,2.57,0,0,0,.69,2,3.17,3.17,0,0,0,2.16.62h11A2.25,2.25,0,0,0,664.2,156V136.7a21.64,21.64,0,0,0-.69-5A55.84,55.84,0,0,0,661.34,125Zm-25.89,7.46,3.44-11.12a2.77,2.77,0,0,1,.62-1,1.12,1.12,0,0,1,.77-.29h1.83a1.12,1.12,0,0,1,.77.29,2.79,2.79,0,0,1,.62,1l3.44,11.12Z"/><path class="cls-1" d="M702.78,140a4.42,4.42,0,0,0,1.57-1.79l4.32-8V156a2.25,2.25,0,0,0,2.63,2.63h11.26A2.26,2.26,0,0,0,725.2,156V108.62a2.26,2.26,0,0,0-2.63-2.63H710.71a3.43,3.43,0,0,0-1.94.51,4.8,4.8,0,0,0-1.43,1.68l-6.51,11.92a5.84,5.84,0,0,1-.62,1,.87.87,0,0,1-.69.29h-.66a.87.87,0,0,1-.69-.29,5.71,5.71,0,0,1-.62-1L691,108.19a4.8,4.8,0,0,0-1.43-1.68,3.43,3.43,0,0,0-1.94-.51H675.82a2.26,2.26,0,0,0-2.63,2.63V156a2.25,2.25,0,0,0,2.63,2.63h10.9a2.25,2.25,0,0,0,2.63-2.63V130.27l4.32,8a3.92,3.92,0,0,0,3.88,2.34h2.93A4.42,4.42,0,0,0,702.78,140Z"/><path class="cls-1" d="M777.56,129.61v-9.36a14.57,14.57,0,0,0-3.66-10.31Q770.25,106,760.3,106H737.92a2.26,2.26,0,0,0-2.63,2.63V156a2.25,2.25,0,0,0,2.63,2.63h11.34a2.25,2.25,0,0,0,2.63-2.63V143.87h8.41q9.95,0,13.6-3.95A14.57,14.57,0,0,0,777.56,129.61Zm-15.8-2.49a4.74,4.74,0,0,1-.66,2.49q-.66,1.1-2.78,1.1h-6.58v-11h6.58q2.12,0,2.78,1.1a4.74,4.74,0,0,1,.66,2.49Z"/><path class="cls-1" d="M353.31,217.54a11.88,11.88,0,0,1,2.41-2.87,20.6,20.6,0,0,1,3.32-2.35,39.49,39.49,0,0,1,3.81-1.92q1.46-.67,3.29-1.62a19.08,19.08,0,0,0,3.45-2.29,12.34,12.34,0,0,0,2.71-3.17,8.25,8.25,0,0,0,1.1-4.33,8.65,8.65,0,0,0-.79-3.63,9.14,9.14,0,0,0-2.32-3.08,11,11,0,0,0-3.72-2.1,15.22,15.22,0,0,0-5-.76,15.76,15.76,0,0,0-5.06.76,21.59,21.59,0,0,0-3.93,1.74,14.89,14.89,0,0,0-2.71,2q-1,1-1.4,1.34l2.74,3a18.9,18.9,0,0,1,1.28-1.43,12.38,12.38,0,0,1,2-1.68,13.12,13.12,0,0,1,2.77-1.37,10.44,10.44,0,0,1,3.6-.58,10.16,10.16,0,0,1,3.51.55,7.84,7.84,0,0,1,2.5,1.43,6,6,0,0,1,1.52,2,5.44,5.44,0,0,1,.52,2.29,5.16,5.16,0,0,1-1,3.2,11.12,11.12,0,0,1-2.65,2.47,24.51,24.51,0,0,1-3.54,2q-1.92.88-3.69,1.8a22.28,22.28,0,0,0-5.27,3.63,15.46,15.46,0,0,0-3,4,14.55,14.55,0,0,0-1.43,4.18,24.35,24.35,0,0,0-.37,4.18h26.16v-3.78H352.36A6.77,6.77,0,0,1,353.31,217.54Z"/><path class="cls-1" d="M406.6,193.74a14.88,14.88,0,0,0-4.85-3.87,14,14,0,0,0-12.2,0,14.85,14.85,0,0,0-4.85,3.87,18.43,18.43,0,0,0-3.2,5.85,24.26,24.26,0,0,0,0,14.81,18.43,18.43,0,0,0,3.2,5.85,14.49,14.49,0,0,0,4.85,3.84,14.24,14.24,0,0,0,12.2,0,14.52,14.52,0,0,0,4.85-3.84,18.47,18.47,0,0,0,3.2-5.85,24.26,24.26,0,0,0,0-14.81A18.47,18.47,0,0,0,406.6,193.74ZM405.93,213a14.57,14.57,0,0,1-2.29,4.6,10.16,10.16,0,0,1-3.51,3,9.76,9.76,0,0,1-4.48,1,9.88,9.88,0,0,1-4.54-1,10.14,10.14,0,0,1-3.51-3,14.56,14.56,0,0,1-2.29-4.6,22.09,22.09,0,0,1,0-11.95,14.57,14.57,0,0,1,2.29-4.6,10.47,10.47,0,0,1,3.51-3,9.67,9.67,0,0,1,4.54-1.07,9.55,9.55,0,0,1,4.48,1.07,10.48,10.48,0,0,1,3.51,3,14.57,14.57,0,0,1,2.29,4.6,22.09,22.09,0,0,1,0,11.95Z"/><rect class="cls-1" x="418.28" y="206.33" width="17.81" height="3.84"/><path class="cls-1" d="M448.13,217.54a11.88,11.88,0,0,1,2.41-2.87,20.6,20.6,0,0,1,3.32-2.35,39.49,39.49,0,0,1,3.81-1.92q1.46-.67,3.29-1.62a19.08,19.08,0,0,0,3.45-2.29,12.34,12.34,0,0,0,2.71-3.17,8.25,8.25,0,0,0,1.1-4.33,8.65,8.65,0,0,0-.79-3.63,9.14,9.14,0,0,0-2.32-3.08,11,11,0,0,0-3.72-2.1,15.22,15.22,0,0,0-5-.76,15.76,15.76,0,0,0-5.06.76,21.59,21.59,0,0,0-3.93,1.74,14.89,14.89,0,0,0-2.71,2q-1,1-1.4,1.34l2.74,3a18.9,18.9,0,0,1,1.28-1.43,12.38,12.38,0,0,1,2-1.68,13.12,13.12,0,0,1,2.77-1.37,10.44,10.44,0,0,1,3.6-.58,10.16,10.16,0,0,1,3.51.55,7.84,7.84,0,0,1,2.5,1.43,6,6,0,0,1,1.52,2,5.44,5.44,0,0,1,.52,2.29,5.16,5.16,0,0,1-1,3.2,11.12,11.12,0,0,1-2.65,2.47,24.51,24.51,0,0,1-3.54,2q-1.92.88-3.69,1.8a22.28,22.28,0,0,0-5.27,3.63,15.46,15.46,0,0,0-3,4,14.55,14.55,0,0,0-1.43,4.18,24.35,24.35,0,0,0-.37,4.18h26.16v-3.78H447.18A6.77,6.77,0,0,1,448.13,217.54Z"/><path class="cls-1" d="M488.83,190h-4.27a5.27,5.27,0,0,1-1.16,1.22,27.93,27.93,0,0,1-2.53,2A22.13,22.13,0,0,1,477.7,195a7.28,7.28,0,0,1-3.08.79v4a9,9,0,0,0,2.68-.49,19.64,19.64,0,0,0,3-1.22,20.37,20.37,0,0,0,2.62-1.58,6.71,6.71,0,0,0,1.68-1.59v26.09H475.9v3.78h20.67v-3.78h-7.74Z"/><polygon class="cls-1" points="540.17 211.2 523.28 181.57 518.89 181.57 518.89 224.86 523.16 224.86 523.16 189.32 538.95 216.81 541.45 216.81 557.25 189.32 557.25 224.86 561.51 224.86 561.51 181.57 557.18 181.57 540.17 211.2"/><path class="cls-1" d="M595.78,219.49V205.17q0-5.91-3.41-9.27T583,192.55q-5.79,0-12,4.15l1.46,2.74a24.13,24.13,0,0,1,5.18-2.8,14,14,0,0,1,5-1,8.71,8.71,0,0,1,6.59,2.47,9.22,9.22,0,0,1,2.38,6.68v2.87a21.48,21.48,0,0,0-4.45-1.22,29.4,29.4,0,0,0-4.94-.43,19.41,19.41,0,0,0-5.37.7,13.43,13.43,0,0,0-4.21,2,9.29,9.29,0,0,0-2.74,3,7.82,7.82,0,0,0-1,3.84,9.47,9.47,0,0,0,3,7,10.53,10.53,0,0,0,3.35,2.1,11.22,11.22,0,0,0,4.18.76,17,17,0,0,0,7.17-1.52,14.4,14.4,0,0,0,5.52-4.39l.12,2.5a3,3,0,0,0,.95,2.19,3.57,3.57,0,0,0,2.47.79,9.88,9.88,0,0,0,1.59-.18V221.2Q595.78,221.2,595.78,219.49Zm-4.15-4a3,3,0,0,1-.27,1.19,3.8,3.8,0,0,1-.82,1.19,9.71,9.71,0,0,1-4.12,3.23,14.33,14.33,0,0,1-5.95,1.22,8.12,8.12,0,0,1-3-.55,7.41,7.41,0,0,1-2.41-1.49A6.94,6.94,0,0,1,573.5,218a6.57,6.57,0,0,1-.58-2.74,5.56,5.56,0,0,1,2.74-4.82,12.64,12.64,0,0,1,7.13-1.83,24.11,24.11,0,0,1,4.54.43,25.48,25.48,0,0,1,4.3,1.22Z"/><rect class="cls-1" x="604.75" y="180.35" width="4.15" height="6.1"/><rect class="cls-1" x="604.75" y="193.1" width="4.15" height="31.76"/><path class="cls-1" d="M642.89,197.49a15.91,15.91,0,0,0-5-3.6,14.85,14.85,0,0,0-6.31-1.34,14.64,14.64,0,0,0-6.28,1.34,16,16,0,0,0-5,3.6,16.62,16.62,0,0,0-3.29,5.24,17,17,0,0,0-1.19,6.34,17.2,17.2,0,0,0,1.16,6.28,16.16,16.16,0,0,0,3.26,5.24,15.57,15.57,0,0,0,5,3.57,15.07,15.07,0,0,0,6.34,1.31,15.28,15.28,0,0,0,6.37-1.31,15.49,15.49,0,0,0,5-3.57,16.17,16.17,0,0,0,3.26-5.24,17.22,17.22,0,0,0,1.16-6.28,17,17,0,0,0-1.19-6.34A16.62,16.62,0,0,0,642.89,197.49ZM642.25,214a13.07,13.07,0,0,1-2.5,4.05,11.91,11.91,0,0,1-3.69,2.74,10.26,10.26,0,0,1-4.48,1,10.53,10.53,0,0,1-4.48-1,11.16,11.16,0,0,1-3.66-2.71,13.48,13.48,0,0,1-2.47-4,13.26,13.26,0,0,1-.91-5,13.73,13.73,0,0,1,.91-5,13.37,13.37,0,0,1,2.5-4.12,11.8,11.8,0,0,1,3.66-2.77,10.06,10.06,0,0,1,4.45-1,10.26,10.26,0,0,1,4.48,1,11.91,11.91,0,0,1,3.69,2.74,13,13,0,0,1,2.5,4.08,14,14,0,0,1,0,10Z"/><path class="cls-1" d="M673.37,217.54a11.88,11.88,0,0,1,2.41-2.87,20.6,20.6,0,0,1,3.32-2.35,39.49,39.49,0,0,1,3.81-1.92q1.46-.67,3.29-1.62a19.08,19.08,0,0,0,3.45-2.29,12.34,12.34,0,0,0,2.71-3.17,8.25,8.25,0,0,0,1.1-4.33,8.65,8.65,0,0,0-.79-3.63,9.14,9.14,0,0,0-2.32-3.08,11,11,0,0,0-3.72-2.1,15.22,15.22,0,0,0-5-.76,15.76,15.76,0,0,0-5.06.76,21.59,21.59,0,0,0-3.93,1.74,14.89,14.89,0,0,0-2.71,2q-1,1-1.4,1.34l2.74,3a18.9,18.9,0,0,1,1.28-1.43,12.38,12.38,0,0,1,2-1.68,13.12,13.12,0,0,1,2.77-1.37,10.44,10.44,0,0,1,3.6-.58,10.16,10.16,0,0,1,3.51.55,7.84,7.84,0,0,1,2.5,1.43,6,6,0,0,1,1.52,2,5.44,5.44,0,0,1,.52,2.29,5.16,5.16,0,0,1-1,3.2,11.12,11.12,0,0,1-2.65,2.47,24.51,24.51,0,0,1-3.54,2q-1.92.88-3.69,1.8a22.28,22.28,0,0,0-5.27,3.63,15.46,15.46,0,0,0-3,4,14.55,14.55,0,0,0-1.43,4.18,24.35,24.35,0,0,0-.37,4.18h26.16v-3.78H672.43A6.77,6.77,0,0,1,673.37,217.54Z"/><path class="cls-1" d="M726.67,193.74a14.88,14.88,0,0,0-4.85-3.87,14,14,0,0,0-12.2,0,14.85,14.85,0,0,0-4.85,3.87,18.43,18.43,0,0,0-3.2,5.85,24.26,24.26,0,0,0,0,14.81,18.43,18.43,0,0,0,3.2,5.85,14.49,14.49,0,0,0,4.85,3.84,14.24,14.24,0,0,0,12.2,0,14.52,14.52,0,0,0,4.85-3.84,18.47,18.47,0,0,0,3.2-5.85,24.26,24.26,0,0,0,0-14.81A18.47,18.47,0,0,0,726.67,193.74ZM726,213a14.57,14.57,0,0,1-2.29,4.6,10.16,10.16,0,0,1-3.51,3,9.76,9.76,0,0,1-4.48,1,9.88,9.88,0,0,1-4.54-1,10.14,10.14,0,0,1-3.51-3,14.56,14.56,0,0,1-2.29-4.6,22.09,22.09,0,0,1,0-11.95,14.57,14.57,0,0,1,2.29-4.6,10.47,10.47,0,0,1,3.51-3,9.67,9.67,0,0,1,4.54-1.07,9.55,9.55,0,0,1,4.48,1.07,10.48,10.48,0,0,1,3.51,3A14.57,14.57,0,0,1,726,201,22.09,22.09,0,0,1,726,213Z"/><path class="cls-1" d="M751.4,190h-4.27a5.27,5.27,0,0,1-1.16,1.22,27.93,27.93,0,0,1-2.53,2,22.13,22.13,0,0,1-3.17,1.83,7.28,7.28,0,0,1-3.08.79v4a9,9,0,0,0,2.68-.49,19.64,19.64,0,0,0,3-1.22,20.37,20.37,0,0,0,2.62-1.58,6.71,6.71,0,0,0,1.68-1.59v26.09h-8.66v3.78h20.67v-3.78H751.4Z"/><polygon class="cls-1" points="762.55 193.16 785.91 193.16 765.85 232.6 770.6 232.6 792.49 189.32 762.55 189.32 762.55 193.16"/><path class="cls-1" d="M226.91,249.56a4.54,4.54,0,0,0-3.24,1.28l0,0c-6.18,5.82-12.84,8.58-21,8.7h-.5a28.73,28.73,0,0,1-20.58-8.51,5.1,5.1,0,0,0-3.57-1.49,4.36,4.36,0,0,0-3.56,1.63l-.1.11a27.45,27.45,0,0,1-19.92,8.54,26.92,26.92,0,0,1-19.84-8.34l-.11-.12a5,5,0,0,0-3.86-1.83,4.89,4.89,0,0,0-3.61,1.53l-.09.09a29.45,29.45,0,0,1-21.05,8.66A30,30,0,0,1,84.76,251a5.11,5.11,0,0,0-3.57-1.49,5,5,0,0,0-5,5,6.23,6.23,0,0,0,1.33,3.57A34.75,34.75,0,0,0,103.77,270,35.64,35.64,0,0,0,124,263.94a9.86,9.86,0,0,1,12.53.28A30.08,30.08,0,0,0,154.07,270a29.69,29.69,0,0,0,18.1-6.15,9.48,9.48,0,0,1,6-2.16,9.59,9.59,0,0,1,6,2.06A34.77,34.77,0,0,0,204.14,270a35.74,35.74,0,0,0,26.5-12.1,5,5,0,0,0-3.73-8.33Z"/><path class="cls-1" d="M271.45,163.88h-17.2L166.85,45.31H236c3.29,0,3.62-1.25,3.62-2.9v-4c0-1.65-.32-3-3.62-3H70.55c-3.29,0-3,1.31-3,3v4c0,1.65-.28,2.9,3,2.9h70.4L53.71,163.88h-17c-1.86,0-2.14-.22-2.14,1.81V188c0,2,.28,3.06,2.14,3.06,0,0,21.48,0,22.19,0,13.14,35.16,33.66,47.45,60.1,58.56a24.54,24.54,0,0,0,4.44-3.51,9.68,9.68,0,0,1,7.17-3.09,9.83,9.83,0,0,1,7.55,3.52,22.12,22.12,0,0,0,16.26,6.77,22.64,22.64,0,0,0,16.37-7,9.24,9.24,0,0,1,7.21-3.28,9.94,9.94,0,0,1,6.94,2.86,36.38,36.38,0,0,0,3.54,3c25.65-11.43,46.9-28.12,58.35-57.9l24.59.07c1.86,0,2.8-1,2.8-3.06v-22.3C274.24,163.67,273.31,163.88,271.45,163.88ZM159.57,45.31l26.23,48.5a70.55,70.55,0,0,0-21.2-6.77s-2.82-29.91-5-41.74Zm-11.26,0c-2.32,11.74-5.4,41.26-5.4,41.26A69.67,69.67,0,0,0,122.55,93l25.76-47.68ZM57.42,163.88,144.66,45.31,117.56,95.7a73.23,73.23,0,0,0-35.63,62.72c0,1.55.05,2.16.15,5.46Zm36.66-6.17a59.58,59.58,0,0,1,5.18-24.34l28.54,78.16A59.81,59.81,0,0,1,94.08,157.71Zm59.81,59.81a59.86,59.86,0,0,1-16.9-2.44l17.95-52.14,18.39,50.36a5.59,5.59,0,0,0,.43.83A59.66,59.66,0,0,1,153.9,217.52Zm8.25-87.85c3.6-.19,6.84-.57,6.84-.57a2.47,2.47,0,0,0-.38-4.93s-9.69.76-15.94.76c-5.88,0-15.75-.76-15.75-.76-3.23-.19-3.6,4.74-.38,4.93,0,0,3,.38,6.27.57l9.32,25.53L139,194.45l-21.78-64.78c3.6-.19,6.84-.57,6.84-.57a2.47,2.47,0,0,0-.38-4.93s-9.69.76-15.94.76c-1.12,0-2.44,0-3.85-.08a59.81,59.81,0,0,1,90.37-11.25c-.26,0-.51,0-.77,0-5.88,0-10,5.11-10,10.61,0,4.93,2.84,9.1,5.88,14,2.27,4,4.93,9.1,4.93,16.49q0,7.67-4.55,19.33l-6,19.93ZM184,209.4l18.27-52.81c3.41-8.53,4.55-15.36,4.55-21.42a45.75,45.75,0,0,0-.4-6.15A59.8,59.8,0,0,1,184,209.4Zm41.46-45.52c.1-3.29.15-3.87.15-5.42a72.47,72.47,0,0,0-34.65-61.78L163.14,45.31l87.4,118.57Z"/><path class="cls-1" d="M146.75,29.46c.69,1.52,1.24,2.68,2.77,2.68h8.58c1.53,0,2.08-1.27,2.77-2.79l5.54-11.13c.69-1.61-1.24-2.55-2.77-2.55h-8V.85c0-1.11-3.29-1.15-3.29,0V15.67h-7.83c-1.53,0-3.37,1.14-2.77,2.52Z"/><path class="cls-1" d="M46.55,154.19c3.26-3.44,8.31-26.23,8.31-26.23l13.31.64s1.89-.19,1.34-1.72c-.9-2.48-12.88-25.21-28.68-8.67C26.5,135.48,0,165,0,165l12.21,13.91L27,155.82S39.34,161.77,46.55,154.19Z"/><path class="cls-1" d="M235.31,126.88c-.55,1.53,1.34,1.72,1.34,1.72L250,128s5,22.79,8.31,26.23c7.21,7.58,19.51,1.63,19.51,1.63l14.83,23.07L304.81,165s-26.5-29.5-40.82-46.77C248.2,101.67,236.21,124.41,235.31,126.88Z"/><path class="cls-1" d="M840.73,157.57H804.21a2.21,2.21,0,0,1-2.58-2.58V108.5a2.21,2.21,0,0,1,2.58-2.58h11.12a2.21,2.21,0,0,1,2.58,2.58V144h9.83V132.39a2.21,2.21,0,0,1,2.58-2.58h10.4a2.21,2.21,0,0,1,2.58,2.58V155a2.21,2.21,0,0,1-2.58,2.58Z"/><path class="cls-1" d="M852.93,157.57a2.21,2.21,0,0,1-2.58-2.58v-8.54a2.21,2.21,0,0,1,2.58-2.58H860v-24.1h-7.1a2.21,2.21,0,0,1-2.58-2.58V108.5a2.21,2.21,0,0,1,2.58-2.58H883.5a2.21,2.21,0,0,1,2.58,2.58v8.68a2.21,2.21,0,0,1-2.58,2.58h-7v24.1h7a2.21,2.21,0,0,1,2.58,2.58V155a2.21,2.21,0,0,1-2.58,2.58Z"/><path class="cls-1" d="M918.87,157.57H896.2a2.21,2.21,0,0,1-2.58-2.58v-8.39A2.21,2.21,0,0,1,896.2,144h19.3a1.65,1.65,0,0,0,1.4-.61,2.34,2.34,0,0,0,.47-1.47,2.82,2.82,0,0,0-.47-1.79,1.9,1.9,0,0,0-1.4-.65L904.73,138a15.6,15.6,0,0,1-8.07-3.3q-3.05-2.58-3.05-8.61v-7.53q0-6.1,3.95-9.36t10.91-3.27h20.09a2.21,2.21,0,0,1,2.58,2.58V117a2.21,2.21,0,0,1-2.58,2.58H911.84a1.75,1.75,0,0,0-1.43.61,2.34,2.34,0,0,0-.5,1.54,2.48,2.48,0,0,0,.5,1.58,1.91,1.91,0,0,0,1.43.72l10.69,1.43a15.84,15.84,0,0,1,8.11,3.3q3.08,2.58,3.09,8.61v7.53q0,6.1-4,9.36T918.87,157.57Z"/><path class="cls-1" d="M971.68,157.57H944.13a2.21,2.21,0,0,1-2.58-2.58V108.5a2.21,2.21,0,0,1,2.58-2.58H967q7,0,10.4,2.69t3.37,8.28v3.44a10.2,10.2,0,0,1-1,4.91,6.41,6.41,0,0,1-3.19,2.83q4.59.43,6.82,3.16t2.22,8v6.6q0,6-3.41,8.89T971.68,157.57Zm-14-39.46v7.75h6.1a2.69,2.69,0,0,0,2-.72,3,3,0,0,0,.68-2.15v-2a3,3,0,0,0-.68-2.15,2.69,2.69,0,0,0-2-.72Zm0,18.8v8.47H967a2.69,2.69,0,0,0,2-.72,3,3,0,0,0,.68-2.15v-2.8a2.89,2.89,0,0,0-.68-2.12,2.78,2.78,0,0,0-2-.68Z"/><path class="cls-1" d="M1037.33,144a17.58,17.58,0,0,1-1,6,10,10,0,0,1-3.44,4.59,18.4,18.4,0,0,1-6.82,3,57.06,57.06,0,0,1-22.07,0,18.41,18.41,0,0,1-6.85-3,10,10,0,0,1-3.44-4.59,17.58,17.58,0,0,1-1-6V119.54a17.61,17.61,0,0,1,1-6,10.23,10.23,0,0,1,3.44-4.63,18.06,18.06,0,0,1,6.85-3,57.06,57.06,0,0,1,22.07,0,18,18,0,0,1,6.82,3,10.23,10.23,0,0,1,3.44,4.63,17.61,17.61,0,0,1,1,6Zm-28.27-2.58a3.1,3.1,0,0,0,1.08,2.4q1.08,1,4.95,1t5-1a3.1,3.1,0,0,0,1.08-2.4v-19.3a3,3,0,0,0-1.08-2.33q-1.08-1-5-1t-4.95,1a3,3,0,0,0-1.08,2.33Z"/><path class="cls-1" d="M1061.08,155a2.21,2.21,0,0,1-2.58,2.58H1048a2.21,2.21,0,0,1-2.58-2.58V136a21.2,21.2,0,0,1,.68-5,54.36,54.36,0,0,1,2.12-6.53l6.24-16.28a3.37,3.37,0,0,1,1.33-1.79,4.26,4.26,0,0,1,2.33-.58h19.3a4.12,4.12,0,0,1,2.26.58,3.38,3.38,0,0,1,1.33,1.79l6.24,16.28a55.24,55.24,0,0,1,2.12,6.53,21.27,21.27,0,0,1,.68,5V155a2.21,2.21,0,0,1-2.58,2.58h-10.84a3.09,3.09,0,0,1-2.12-.61,2.52,2.52,0,0,1-.68-2v-10h-12.7Zm4.09-34-3.37,10.9h11.27l-3.37-10.9a2.76,2.76,0,0,0-.61-.93,1.1,1.1,0,0,0-.75-.28h-1.79a1.11,1.11,0,0,0-.75.28A2.73,2.73,0,0,0,1065.17,121Z"/></g></g></svg>