<svg xmlns="http://www.w3.org/2000/svg" viewBox="0 0 184.69 243.44"><defs><style>.cls-1,.cls-14,.cls-15,.cls-2,.cls-5,.cls-6{fill:none;stroke-miterlimit:10;}.cls-1{stroke:#454545;}.cls-1,.cls-5{stroke-width:0.25px;}.cls-15,.cls-2,.cls-5{stroke:#5db9e9;}.cls-13,.cls-3,.cls-8{fill:#5db9e9;}.cls-4{fill:#aaa;}.cls-6{stroke:#aaa;stroke-width:2.8px;stroke-dasharray:0.5 1.4;}.cls-31,.cls-7{fill:#3c70b7;}.cls-13,.cls-16,.cls-8{font-size:11.48px;}.cls-13,.cls-31,.cls-8{font-family:PTSans-Bold, PT Sans;}.cls-13,.cls-31,.cls-9{font-weight:700;}.cls-13,.cls-9{letter-spacing:-0.04em;}.cls-10{font-size:5.74px;}.cls-10,.cls-16,.cls-20,.cls-24,.cls-27{font-family:PTSans-Regular, PT Sans;}.cls-11{letter-spacing:-0.06em;}.cls-12{letter-spacing:-0.03em;}.cls-14{stroke:#676767;stroke-width:0.5px;}.cls-15{stroke-linecap:square;}.cls-16,.cls-20,.cls-24{fill:#010101;}.cls-17{letter-spacing:-0.03em;}.cls-18{letter-spacing:-0.07em;}.cls-19{letter-spacing:-0.08em;}.cls-20{font-size:9.56px;}.cls-21{letter-spacing:-0.01em;}.cls-22{letter-spacing:-0.04em;}.cls-23{letter-spacing:0em;}.cls-24,.cls-27{font-size:9.56px;}.cls-25{letter-spacing:-0.01em;}.cls-26{letter-spacing:-0.05em;}.cls-27{fill:#231f20;}.cls-28{letter-spacing:-0.02em;}.cls-29{letter-spacing:0em;}.cls-30{letter-spacing:-0.02em;}.cls-31{font-size:13.39px;}.cls-32{letter-spacing:-0.01em;}.cls-33{letter-spacing:-0.05em;}</style></defs><title>Asset 2</title><g id="Layer_2" data-name="Layer 2"><g id="_Layer_" data-name="&lt;Layer&gt;"><rect class="cls-1" x="139.04" y="0.13" width="45.53" height="28.55"/><polyline class="cls-2" points="69.37 236.97 58.38 236.97 58.38 178.63 32.08 178.63 32.08 149.22 37.81 149.22 37.81 104.27 32.08 104.27 32.08 56.45 58.14 56.45 58.14 39.47 83.48 39.47 83.48 55.93"/><polygon class="cls-3" points="80.62 53.61 81.13 53.13 83.48 55.66 85.83 53.13 86.34 53.61 83.48 56.69 80.62 53.61"/><line class="cls-2" x1="79.66" y1="39.47" x2="79.66" y2="23.49"/><polygon class="cls-3" points="82.52 25.81 82.01 26.29 79.66 23.76 77.31 26.29 76.79 25.81 79.66 22.73 82.52 25.81"/><line class="cls-2" x1="86.53" y1="236.97" x2="76.97" y2="236.97"/><polygon class="cls-3" points="79.29 234.1 79.77 234.62 77.24 236.97 79.77 239.31 79.29 239.83 76.21 236.97 79.29 234.1"/><rect class="cls-4" x="34.94" y="59.08" width="18.17" height="38.02"/><rect class="cls-4" x="34.94" y="154.99" width="18.17" height="20.77"/><rect class="cls-4" x="40.67" y="95.1" width="12.45" height="61.77"/><rect class="cls-4" x="10.78" y="111.9" width="16.51" height="45.43"/><rect class="cls-4" x="17" y="111.9" width="16.51" height="30.51"/><rect class="cls-4" x="24.42" y="182.31" width="6.62" height="51.31"/><rect class="cls-4" x="61.6" y="64.76" width="7.06" height="124.28"/><rect class="cls-4" x="34.94" y="186.44" width="3.92" height="11.84"/><rect class="cls-4" x="40.67" y="183.73" width="12.49" height="16.39"/><rect class="cls-4" x="34.23" y="42.18" width="7.01" height="12.11"/><rect class="cls-4" x="46.1" y="35.25" width="7.49" height="7.49"/><rect class="cls-4" x="45.7" y="49.83" width="7.89" height="4.46"/><rect class="cls-4" x="60.61" y="46.48" width="7.33" height="11.64"/><rect class="cls-4" x="67.94" y="42.74" width="7.86" height="11.64"/><rect class="cls-5" x="71.6" y="65.93" width="25.08" height="39.69"/><polygon class="cls-5" points="29.45 110.12 10.78 110.12 10.78 97.81 21.16 97.81 21.16 55.73 29.45 55.73 29.45 110.12"/><rect class="cls-5" x="34.14" y="205.56" width="18.97" height="25.34"/><line class="cls-6" x1="57.36" y1="175.76" x2="57.36" y2="64.76"/><circle class="cls-7" cx="49.65" cy="137.82" r="6.2"/><text class="cls-8" transform="translate(81.46 85.77)"><tspan class="cls-9">P</tspan><tspan class="cls-10"><tspan class="cls-11" x="-3.7" y="7.65">P</tspan><tspan class="cls-12" x="-0.85" y="7.65">A</tspan><tspan x="2.36" y="7.65">GO</tspan></tspan></text><text class="cls-13" transform="translate(40.1 222.5)">P</text><text class="cls-13" transform="translate(17.06 109.02)">P</text><text class="cls-13" transform="translate(21.79 81.28)">P</text><polyline class="cls-14" points="62.68 233.62 65.31 233.62 65.31 189.38 68.66 189.38 68.66 65.05 72.24 57.64 76.07 57.64 76.07 42.74"/><polyline class="cls-14" points="76.39 35.51 65.55 35.51 65.55 25.6 17.97 43.06 20.6 47.84 16.05 57.11 19.04 56.03 19.04 96.08 8.16 96.08 8.16 160.22 24.42 160.22 24.42 233.62 53.59 233.62"/><polyline class="cls-15" points="34.94 178.63 34.94 202.53 58.38 202.53"/><text class="cls-16" transform="translate(92.86 240.63)"><tspan class="cls-17">A</tspan><tspan class="cls-18" x="6.31" y="0">v</tspan><tspan class="cls-19" x="11.02" y="0">.</tspan><tspan x="12.58" y="0" xml:space="preserve"> da Índia</tspan></text><text class="cls-20" transform="translate(2.92 31.07) rotate(-21.09)"><tspan class="cls-21">R</tspan><tspan x="5.59" y="0">ua </tspan><tspan class="cls-22" x="18.05" y="0">P</tspan><tspan class="cls-23" x="23.06" y="0">rimeiro</tspan><tspan x="0" y="9.56">de Maio</tspan></text><text class="cls-24" transform="translate(90.22 42.18)"><tspan class="cls-25">R</tspan><tspan x="5.59" y="0">ua </tspan><tspan class="cls-26" x="18.05" y="0">R</tspan><tspan x="23.28" y="0">odrigues Faria</tspan></text><text class="cls-27" transform="translate(143.88 12.8)"><tspan class="cls-28">L<tspan class="cls-29" x="4.75" y="0">argo do</tspan></tspan><tspan class="cls-30" x="1.35" y="9.56">C</tspan><tspan x="6.65" y="9.56">alvário</tspan></text><text class="cls-31" transform="translate(72.05 137.05)">Sil<tspan class="cls-32" x="14.63" y="0">v</tspan><tspan x="20.93" y="0">er</tspan><tspan class="cls-33" x="-0.07" y="11.48">R</tspan><tspan x="7.34" y="11.48">oom</tspan></text></g></g></svg>