<svg xmlns="http://www.w3.org/2000/svg" viewBox="0 0 400 550"><defs><style>.cls-1{fill:#010101;}</style></defs><title>Asset 4</title><g id="Layer_2" data-name="Layer 2"><g id="Layer_1-2" data-name="Layer 1"><path class="cls-1" d="M68,540.85a7.22,7.22,0,0,1,1.47-1.74,12.54,12.54,0,0,1,2-1.43,24.06,24.06,0,0,1,2.32-1.17q.89-.41,2-1a11.61,11.61,0,0,0,2.1-1.39,7.5,7.5,0,0,0,1.65-1.93,5,5,0,0,0,.67-2.63,5.25,5.25,0,0,0-.48-2.2,5.55,5.55,0,0,0-1.41-1.87A6.73,6.73,0,0,0,76,524.24a9.28,9.28,0,0,0-3-.46,9.61,9.61,0,0,0-3.08.46,13.15,13.15,0,0,0-2.39,1.06,9.06,9.06,0,0,0-1.65,1.19l-.85.81,1.67,1.81a11.49,11.49,0,0,1,.78-.87,7.53,7.53,0,0,1,1.24-1,8,8,0,0,1,1.69-.83,6.36,6.36,0,0,1,2.19-.35,6.2,6.2,0,0,1,2.13.33,4.78,4.78,0,0,1,1.52.87,3.66,3.66,0,0,1,.93,1.22,3.3,3.3,0,0,1,.32,1.39,3.13,3.13,0,0,1-.63,1.94,6.76,6.76,0,0,1-1.61,1.5,14.93,14.93,0,0,1-2.15,1.2q-1.17.54-2.25,1.09a13.56,13.56,0,0,0-3.21,2.2,9.39,9.39,0,0,0-1.86,2.43,8.83,8.83,0,0,0-.87,2.54,14.76,14.76,0,0,0-.22,2.54H80.6V543H67.39A4.1,4.1,0,0,1,68,540.85Z"/><path class="cls-1" d="M100.41,526.39a9.05,9.05,0,0,0-3-2.35A8.51,8.51,0,0,0,90,524a9,9,0,0,0-3,2.35,11.19,11.19,0,0,0-1.95,3.56,14.71,14.71,0,0,0,0,9,11.19,11.19,0,0,0,1.95,3.56,8.82,8.82,0,0,0,3,2.33,8.68,8.68,0,0,0,7.42,0,8.83,8.83,0,0,0,3-2.33,11.21,11.21,0,0,0,1.95-3.56,14.71,14.71,0,0,0,0-9A11.21,11.21,0,0,0,100.41,526.39ZM100,538.07a8.84,8.84,0,0,1-1.39,2.8,6.18,6.18,0,0,1-2.13,1.8,6,6,0,0,1-2.73.63,6,6,0,0,1-2.77-.63,6.17,6.17,0,0,1-2.13-1.8,8.84,8.84,0,0,1-1.39-2.8,13.39,13.39,0,0,1,0-7.26,8.84,8.84,0,0,1,1.39-2.8A6.37,6.37,0,0,1,91,526.2a5.89,5.89,0,0,1,2.77-.65,5.82,5.82,0,0,1,2.73.65A6.38,6.38,0,0,1,98.61,528a8.85,8.85,0,0,1,1.39,2.8,13.39,13.39,0,0,1,0,7.26Z"/><rect class="cls-1" x="107.51" y="534.04" width="10.84" height="2.33"/><path class="cls-1" d="M125.68,540.85a7.22,7.22,0,0,1,1.47-1.74,12.54,12.54,0,0,1,2-1.43,24.06,24.06,0,0,1,2.32-1.17q.89-.41,2-1a11.61,11.61,0,0,0,2.1-1.39,7.5,7.5,0,0,0,1.65-1.93,5,5,0,0,0,.67-2.63,5.25,5.25,0,0,0-.48-2.2,5.55,5.55,0,0,0-1.41-1.87,6.73,6.73,0,0,0-2.26-1.28,9.28,9.28,0,0,0-3-.46,9.61,9.61,0,0,0-3.08.46,13.15,13.15,0,0,0-2.39,1.06,9.06,9.06,0,0,0-1.65,1.19l-.85.81,1.67,1.81a11.49,11.49,0,0,1,.78-.87,7.53,7.53,0,0,1,1.24-1,8,8,0,0,1,1.69-.83,6.36,6.36,0,0,1,2.19-.35,6.2,6.2,0,0,1,2.13.33,4.78,4.78,0,0,1,1.52.87,3.66,3.66,0,0,1,.93,1.22,3.3,3.3,0,0,1,.32,1.39,3.13,3.13,0,0,1-.63,1.94,6.76,6.76,0,0,1-1.61,1.5,14.93,14.93,0,0,1-2.15,1.2q-1.17.54-2.25,1.09a13.56,13.56,0,0,0-3.21,2.2,9.39,9.39,0,0,0-1.86,2.43,8.83,8.83,0,0,0-.87,2.54,14.76,14.76,0,0,0-.22,2.54h15.92V543H125.11A4.1,4.1,0,0,1,125.68,540.85Z"/><path class="cls-1" d="M150.46,524.15h-2.6a3.2,3.2,0,0,1-.71.74,17,17,0,0,1-1.54,1.19,13.48,13.48,0,0,1-1.93,1.11,4.44,4.44,0,0,1-1.87.48v2.44a5.46,5.46,0,0,0,1.63-.3,12,12,0,0,0,1.8-.74,12.41,12.41,0,0,0,1.6-1,4.08,4.08,0,0,0,1-1V543h-5.27v2.3h12.58V543h-4.71Z"/><polygon class="cls-1" points="181.71 537 171.43 519 168.75 519 168.75 545.3 171.35 545.3 171.35 523.71 180.97 540.41 182.49 540.41 192.1 523.71 192.1 545.3 194.7 545.3 194.7 519 192.06 519 181.71 537"/><path class="cls-1" d="M215.56,542v-8.7a7.52,7.52,0,0,0-2.08-5.63,7.82,7.82,0,0,0-5.72-2,13.08,13.08,0,0,0-7.27,2.52l.89,1.67a14.7,14.7,0,0,1,3.15-1.7,8.54,8.54,0,0,1,3-.59,5.31,5.31,0,0,1,4,1.5,5.59,5.59,0,0,1,1.45,4.06v1.74a13.1,13.1,0,0,0-2.71-.74,17.93,17.93,0,0,0-3-.26,11.84,11.84,0,0,0-3.27.43,8.18,8.18,0,0,0-2.56,1.2,5.65,5.65,0,0,0-1.67,1.85,4.74,4.74,0,0,0-.59,2.33,5.75,5.75,0,0,0,1.84,4.26,6.41,6.41,0,0,0,2,1.28,6.84,6.84,0,0,0,2.54.46,10.36,10.36,0,0,0,4.36-.93,8.76,8.76,0,0,0,3.36-2.67l.07,1.52a1.81,1.81,0,0,0,.58,1.33,2.17,2.17,0,0,0,1.5.48,6,6,0,0,0,1-.11v-2.22Q215.56,543.07,215.56,542ZM213,539.59a1.84,1.84,0,0,1-.17.72,2.31,2.31,0,0,1-.5.72,5.91,5.91,0,0,1-2.51,2,8.74,8.74,0,0,1-3.62.74,5,5,0,0,1-1.82-.33,4.51,4.51,0,0,1-1.47-.91,4.22,4.22,0,0,1-1-1.35,4,4,0,0,1-.35-1.67,3.38,3.38,0,0,1,1.67-2.93,7.71,7.71,0,0,1,4.34-1.11,14.7,14.7,0,0,1,2.77.26,15.53,15.53,0,0,1,2.62.74Z"/><rect class="cls-1" x="221.01" y="518.26" width="2.52" height="3.7"/><rect class="cls-1" x="221.01" y="526" width="2.52" height="19.3"/><path class="cls-1" d="M244.23,528.67a9.68,9.68,0,0,0-3-2.19,9.05,9.05,0,0,0-3.84-.81,8.93,8.93,0,0,0-3.82.81,9.74,9.74,0,0,0-3,2.19,10.09,10.09,0,0,0-2,3.19,10.3,10.3,0,0,0-.72,3.85,10.43,10.43,0,0,0,.71,3.81,9.81,9.81,0,0,0,2,3.19,9.48,9.48,0,0,0,3,2.17,9.19,9.19,0,0,0,3.86.8,9.32,9.32,0,0,0,3.88-.8,9.43,9.43,0,0,0,3-2.17,9.82,9.82,0,0,0,2-3.19,10.44,10.44,0,0,0,.71-3.81,10.3,10.3,0,0,0-.72-3.85A10.1,10.1,0,0,0,244.23,528.67Zm-.39,10a7.94,7.94,0,0,1-1.52,2.46,7.25,7.25,0,0,1-2.25,1.67,6.25,6.25,0,0,1-2.73.61,6.42,6.42,0,0,1-2.73-.59,6.79,6.79,0,0,1-2.23-1.65,8.18,8.18,0,0,1-1.5-2.44,8,8,0,0,1-.56-3,8.33,8.33,0,0,1,.56-3.06,8.12,8.12,0,0,1,1.52-2.5,7.18,7.18,0,0,1,2.23-1.69,6.13,6.13,0,0,1,2.71-.61,6.25,6.25,0,0,1,2.73.61,7.25,7.25,0,0,1,2.25,1.67,7.89,7.89,0,0,1,1.52,2.48,8.51,8.51,0,0,1,0,6.06Z"/><path class="cls-1" d="M262.79,540.85a7.22,7.22,0,0,1,1.47-1.74,12.54,12.54,0,0,1,2-1.43,24.06,24.06,0,0,1,2.32-1.17q.89-.41,2-1a11.61,11.61,0,0,0,2.1-1.39,7.5,7.5,0,0,0,1.65-1.93,5,5,0,0,0,.67-2.63,5.25,5.25,0,0,0-.48-2.2,5.55,5.55,0,0,0-1.41-1.87,6.73,6.73,0,0,0-2.26-1.28,9.28,9.28,0,0,0-3-.46,9.61,9.61,0,0,0-3.08.46,13.15,13.15,0,0,0-2.39,1.06,9.06,9.06,0,0,0-1.65,1.19l-.85.81,1.67,1.81a11.49,11.49,0,0,1,.78-.87,7.53,7.53,0,0,1,1.24-1,8,8,0,0,1,1.69-.83,6.36,6.36,0,0,1,2.19-.35,6.2,6.2,0,0,1,2.13.33,4.78,4.78,0,0,1,1.52.87,3.66,3.66,0,0,1,.93,1.22,3.3,3.3,0,0,1,.32,1.39,3.13,3.13,0,0,1-.63,1.94,6.76,6.76,0,0,1-1.61,1.5,14.93,14.93,0,0,1-2.15,1.2q-1.17.54-2.25,1.09a13.56,13.56,0,0,0-3.21,2.2,9.39,9.39,0,0,0-1.86,2.43,8.83,8.83,0,0,0-.87,2.54,14.76,14.76,0,0,0-.22,2.54h15.92V543H262.21A4.1,4.1,0,0,1,262.79,540.85Z"/><path class="cls-1" d="M295.23,526.39a9.05,9.05,0,0,0-3-2.35,8.51,8.51,0,0,0-7.42,0,9,9,0,0,0-3,2.35,11.19,11.19,0,0,0-1.95,3.56,14.71,14.71,0,0,0,0,9,11.19,11.19,0,0,0,1.95,3.56,8.82,8.82,0,0,0,3,2.33,8.68,8.68,0,0,0,7.42,0,8.83,8.83,0,0,0,3-2.33,11.21,11.21,0,0,0,1.95-3.56,14.71,14.71,0,0,0,0-9A11.21,11.21,0,0,0,295.23,526.39Zm-.41,11.68a8.84,8.84,0,0,1-1.39,2.8,6.18,6.18,0,0,1-2.13,1.8,6,6,0,0,1-2.73.63,6,6,0,0,1-2.77-.63,6.17,6.17,0,0,1-2.13-1.8,8.84,8.84,0,0,1-1.39-2.8,13.39,13.39,0,0,1,0-7.26,8.84,8.84,0,0,1,1.39-2.8,6.37,6.37,0,0,1,2.13-1.81,5.89,5.89,0,0,1,2.77-.65,5.82,5.82,0,0,1,2.73.65,6.38,6.38,0,0,1,2.13,1.81,8.85,8.85,0,0,1,1.39,2.8,13.39,13.39,0,0,1,0,7.26Z"/><path class="cls-1" d="M310.28,524.15h-2.6a3.2,3.2,0,0,1-.71.74,17,17,0,0,1-1.54,1.19,13.48,13.48,0,0,1-1.93,1.11,4.44,4.44,0,0,1-1.87.48v2.44a5.46,5.46,0,0,0,1.63-.3,12,12,0,0,0,1.8-.74,12.41,12.41,0,0,0,1.6-1,4.08,4.08,0,0,0,1-1V543h-5.27v2.3H315V543h-4.71Z"/><polygon class="cls-1" points="317.07 526.04 331.29 526.04 319.07 550 321.97 550 335.3 523.71 317.07 523.71 317.07 526.04"/><path class="cls-1" d="M30.22,429.67a4.11,4.11,0,0,0,2,.48h9.09a2.24,2.24,0,0,0,1.74-.72,4.84,4.84,0,0,0,1-1.74l3.42-9.27A18.72,18.72,0,0,0,48.5,414q.17-1.87.17-4.06V383.5A2.1,2.1,0,0,0,46.21,381H36a2.1,2.1,0,0,0-2.46,2.45V408.6l-4-8.59a3.44,3.44,0,0,0-1.44-1.64,4.58,4.58,0,0,0-2.19-.48H23.11a4.58,4.58,0,0,0-2.19.48A3.43,3.43,0,0,0,19.49,400l-4,8.59V383.5a2.57,2.57,0,0,0-.58-1.88,2.59,2.59,0,0,0-1.88-.58H2.55a2.58,2.58,0,0,0-1.88.58,2.57,2.57,0,0,0-.58,1.88v26.32q0,2.18.17,4.06a18.59,18.59,0,0,0,1.06,4.4l3.42,9.41a3.78,3.78,0,0,0,1.13,1.77,2.77,2.77,0,0,0,1.88.68h9a3.21,3.21,0,0,0,1.85-.51,2.58,2.58,0,0,0,1-1.53L22.84,417a1.82,1.82,0,0,1,.51-.92,1.14,1.14,0,0,1,.72-.24h.62a1.14,1.14,0,0,1,.72.24,1.82,1.82,0,0,1,.51.92l3.14,11.11A2.32,2.32,0,0,0,30.22,429.67Z"/><path class="cls-1" d="M78,431.17a44.74,44.74,0,0,0,10.49-1A17.58,17.58,0,0,0,95,427.31,9.52,9.52,0,0,0,98.25,423a16.68,16.68,0,0,0,.92-5.69V394a16.69,16.69,0,0,0-.92-5.69,9.73,9.73,0,0,0-3.28-4.4A17.22,17.22,0,0,0,88.48,381,44.74,44.74,0,0,0,78,380a45.18,45.18,0,0,0-10.52,1,17.23,17.23,0,0,0-6.53,2.86,9.73,9.73,0,0,0-3.28,4.4,16.69,16.69,0,0,0-.92,5.69v23.25a16.68,16.68,0,0,0,.92,5.69,9.52,9.52,0,0,0,3.28,4.36,17.59,17.59,0,0,0,6.53,2.83A45.18,45.18,0,0,0,78,431.17Zm-5.74-34.71a2.88,2.88,0,0,1,1-2.22q1-.92,4.72-.92t4.72.92a2.88,2.88,0,0,1,1,2.22V414.8a3,3,0,0,1-1,2.28q-1,.92-4.72.92t-4.72-.92a3,3,0,0,1-1-2.28Z"/><path class="cls-1" d="M142.7,403.35a5.32,5.32,0,0,0,3-2.9,12.46,12.46,0,0,0,.85-4.88v-3.14a11.69,11.69,0,0,0-2.9-8.22Q140.72,381,133.07,381H110.31a2.1,2.1,0,0,0-2.46,2.45v44.18a2.1,2.1,0,0,0,2.46,2.45h10.52a2.1,2.1,0,0,0,2.46-2.45V414.33h9.57a2.47,2.47,0,0,1,2,.72,3.49,3.49,0,0,1,.58,2.22v10.43a2.1,2.1,0,0,0,2.46,2.45h10.59a2.1,2.1,0,0,0,2.46-2.45V413.23a10,10,0,0,0-2.29-6.89A9,9,0,0,0,142.7,403.35Zm-11.28-4.5a4,4,0,0,1-.62,2.28,2.68,2.68,0,0,1-2.39.92h-5.13v-8.73h5.13a2.68,2.68,0,0,1,2.39.92,4,4,0,0,1,.62,2.28Z"/><path class="cls-1" d="M196.79,384.46q-4.13-3.41-12.68-3.41h-23a2.1,2.1,0,0,0-2.46,2.45v44.18a2.1,2.1,0,0,0,2.46,2.45h23q8.54,0,12.68-3.41t4.13-10.5V395Q200.92,387.87,196.79,384.46Zm-11.31,29.46a3.53,3.53,0,0,1-.79,2.52,3.22,3.22,0,0,1-2.43.82h-8.13V394.07h8.13a3.31,3.31,0,0,1,2.43.78,3.4,3.4,0,0,1,.79,2.49Z"/><path class="cls-1" d="M242.33,381H225.66q-8.54,0-12.68,3.44T208.85,395v21.21q0,7.09,4.13,10.5t12.68,3.41h16.67a2.1,2.1,0,0,0,2.46-2.45v-8.11a2.1,2.1,0,0,0-2.46-2.45H228.6a5.16,5.16,0,0,1-3.14-.78,2.93,2.93,0,0,1-1-2.49V397.62a3.14,3.14,0,0,1,1-2.56,4.85,4.85,0,0,1,3.14-.85h13.74a2.1,2.1,0,0,0,2.46-2.45V383.5a2.1,2.1,0,0,0-2.46-2.45Z"/><path class="cls-1" d="M291.33,398.78l-5.95-15.48a3.21,3.21,0,0,0-1.26-1.7A3.93,3.93,0,0,0,282,381H263.59a4.06,4.06,0,0,0-2.22.55,3.2,3.2,0,0,0-1.26,1.7l-5.95,15.48a51.66,51.66,0,0,0-2,6.2,20.1,20.1,0,0,0-.65,4.7v18a2.1,2.1,0,0,0,2.46,2.45h10a2.1,2.1,0,0,0,2.46-2.45v-9.55h12.1v9.55a2.4,2.4,0,0,0,.65,1.88,3,3,0,0,0,2,.58h10.32a2.1,2.1,0,0,0,2.46-2.45v-18a20.14,20.14,0,0,0-.65-4.7A52,52,0,0,0,291.33,398.78Zm-24.19,7,3.21-10.36a2.58,2.58,0,0,1,.58-.89,1.05,1.05,0,0,1,.72-.27h1.71a1.05,1.05,0,0,1,.72.27,2.6,2.6,0,0,1,.58.89l3.21,10.36Z"/><path class="cls-1" d="M330,412.79a4.12,4.12,0,0,0,1.47-1.67l4-7.43v24a2.1,2.1,0,0,0,2.46,2.45h10.52a2.1,2.1,0,0,0,2.46-2.45V383.5a2.11,2.11,0,0,0-2.46-2.45H337.46a3.21,3.21,0,0,0-1.81.48,4.48,4.48,0,0,0-1.33,1.57l-6.08,11.11a5.44,5.44,0,0,1-.58.89.82.82,0,0,1-.65.27h-.62a.82.82,0,0,1-.65-.27,5.33,5.33,0,0,1-.58-.89L319,383.1a4.48,4.48,0,0,0-1.33-1.57,3.21,3.21,0,0,0-1.81-.48h-11a2.1,2.1,0,0,0-2.46,2.45v44.18a2.1,2.1,0,0,0,2.46,2.45H315a2.1,2.1,0,0,0,2.46-2.45v-24l4,7.43a3.66,3.66,0,0,0,3.62,2.18h2.73A4.13,4.13,0,0,0,330,412.79Z"/><path class="cls-1" d="M399.91,403.07v-8.73a13.57,13.57,0,0,0-3.42-9.61q-3.42-3.68-12.71-3.68H362.88a2.1,2.1,0,0,0-2.46,2.45v44.18a2.1,2.1,0,0,0,2.46,2.45h10.59a2.1,2.1,0,0,0,2.46-2.45V416.37h7.86q9.29,0,12.71-3.68A13.57,13.57,0,0,0,399.91,403.07Zm-14.76-2.32a4.41,4.41,0,0,1-.62,2.32q-.61,1-2.6,1h-6.15V393.8h6.15q2,0,2.6,1a4.41,4.41,0,0,1,.62,2.32Z"/><path class="cls-1" d="M101.82,495.78H67.7a2.06,2.06,0,0,1-2.41-2.41V450a2.06,2.06,0,0,1,2.41-2.41H78.09A2.07,2.07,0,0,1,80.51,450v33.11h9.19V472.3a2.06,2.06,0,0,1,2.41-2.41h9.72a2.07,2.07,0,0,1,2.41,2.41v21.07a2.07,2.07,0,0,1-2.41,2.41Z"/><path class="cls-1" d="M113.22,495.78a2.07,2.07,0,0,1-2.41-2.41v-8a2.07,2.07,0,0,1,2.41-2.41h6.64V460.53h-6.64a2.07,2.07,0,0,1-2.41-2.41V450a2.07,2.07,0,0,1,2.41-2.41h28.56a2.07,2.07,0,0,1,2.41,2.41v8.09a2.07,2.07,0,0,1-2.41,2.41h-6.5V483h6.5a2.07,2.07,0,0,1,2.41,2.41v8a2.07,2.07,0,0,1-2.41,2.41Z"/><path class="cls-1" d="M174.83,495.78H153.64a2.07,2.07,0,0,1-2.41-2.41v-7.83a2.07,2.07,0,0,1,2.41-2.41h18a1.54,1.54,0,0,0,1.31-.57,2.18,2.18,0,0,0,.44-1.37,2.63,2.63,0,0,0-.44-1.67,1.77,1.77,0,0,0-1.31-.6l-10.06-1.41a14.59,14.59,0,0,1-7.54-3.08q-2.85-2.41-2.85-8v-7q0-5.68,3.69-8.73t10.19-3h18.77a2.07,2.07,0,0,1,2.41,2.41v8a2.07,2.07,0,0,1-2.41,2.41H168.26a1.64,1.64,0,0,0-1.34.57,2.18,2.18,0,0,0-.47,1.44,2.31,2.31,0,0,0,.47,1.47,1.78,1.78,0,0,0,1.34.67l10,1.34a14.82,14.82,0,0,1,7.57,3.08q2.88,2.41,2.88,8v7q0,5.69-3.72,8.73T174.83,495.78Z"/><path class="cls-1" d="M224.17,495.78H198.42a2.06,2.06,0,0,1-2.41-2.41V450a2.06,2.06,0,0,1,2.41-2.41h21.39q6.57,0,9.72,2.51t3.15,7.72v3.21a9.49,9.49,0,0,1-1,4.58,6,6,0,0,1-3,2.64,8.9,8.9,0,0,1,6.37,2.94q2.08,2.54,2.08,7.43v6.15q0,5.62-3.18,8.29T224.17,495.78ZM211.09,459v7.22h5.7a2.52,2.52,0,0,0,1.91-.67,2.81,2.81,0,0,0,.64-2v-1.87a2.81,2.81,0,0,0-.64-2,2.52,2.52,0,0,0-1.91-.67Zm0,17.53v7.89h8.71a2.52,2.52,0,0,0,1.91-.67,2.81,2.81,0,0,0,.64-2v-2.61a2.69,2.69,0,0,0-.64-2,2.6,2.6,0,0,0-1.91-.64Z"/><path class="cls-1" d="M285.51,483.14a16.36,16.36,0,0,1-.9,5.59,9.32,9.32,0,0,1-3.22,4.28,17.21,17.21,0,0,1-6.37,2.78,53.42,53.42,0,0,1-20.62,0A17.22,17.22,0,0,1,248,493a9.32,9.32,0,0,1-3.22-4.28,16.36,16.36,0,0,1-.9-5.59V460.33a16.39,16.39,0,0,1,.9-5.59,9.54,9.54,0,0,1,3.22-4.31,16.89,16.89,0,0,1,6.4-2.81,53.42,53.42,0,0,1,20.62,0,16.88,16.88,0,0,1,6.37,2.81,9.54,9.54,0,0,1,3.22,4.31,16.39,16.39,0,0,1,.9,5.59Zm-26.41-2.41a2.89,2.89,0,0,0,1,2.24q1,.9,4.62.9t4.63-.9a2.89,2.89,0,0,0,1-2.24v-18a2.82,2.82,0,0,0-1-2.17q-1-.9-4.63-.9t-4.62.9a2.82,2.82,0,0,0-1,2.17Z"/><path class="cls-1" d="M307.7,493.37a2.07,2.07,0,0,1-2.41,2.41h-9.85a2.07,2.07,0,0,1-2.41-2.41V475.71a19.73,19.73,0,0,1,.64-4.62,50.61,50.61,0,0,1,2-6.09l5.83-15.18a3.14,3.14,0,0,1,1.24-1.67,4,4,0,0,1,2.18-.54h18a3.85,3.85,0,0,1,2.11.54,3.15,3.15,0,0,1,1.24,1.67L332.1,465a51.43,51.43,0,0,1,2,6.09,19.8,19.8,0,0,1,.64,4.62v17.66a2.06,2.06,0,0,1-2.41,2.41H322.18a2.89,2.89,0,0,1-2-.57,2.35,2.35,0,0,1-.64-1.84V484H307.7Zm3.82-31.71-3.15,10.17h10.53l-3.15-10.17a2.57,2.57,0,0,0-.57-.87,1,1,0,0,0-.7-.27h-1.68a1,1,0,0,0-.7.27A2.55,2.55,0,0,0,311.52,461.66Z"/><path class="cls-1" d="M297.77,326.83a6,6,0,0,0-4.25,1.67l0,0c-8.09,7.6-16.84,11.22-27.52,11.39h-.65a37.74,37.74,0,0,1-27-11.14,6.7,6.7,0,0,0-4.68-2,5.72,5.72,0,0,0-4.67,2.13l-.13.15a36.05,36.05,0,0,1-26.14,11.19,35.36,35.36,0,0,1-26-10.93l-.14-.16a6.56,6.56,0,0,0-5.07-2.39,6.42,6.42,0,0,0-4.73,2l-.11.12A38.69,38.69,0,0,1,139,340.3a39.42,39.42,0,0,1-27.73-11.51,6.71,6.71,0,0,0-4.68-2,6.56,6.56,0,0,0-6.56,6.55,8.15,8.15,0,0,0,1.74,4.68,45.65,45.65,0,0,0,34.45,15.53,46.84,46.84,0,0,0,26.58-7.93,13,13,0,0,1,16.45.37,39.53,39.53,0,0,0,23,7.57,39,39,0,0,0,23.75-8,12.45,12.45,0,0,1,7.93-2.83,12.61,12.61,0,0,1,7.85,2.69,45.69,45.69,0,0,0,26.18,8.18,46.94,46.94,0,0,0,34.78-15.85,6.54,6.54,0,0,0-4.9-10.91Z"/><path class="cls-1" d="M356.22,214.62H333.65L219,59.34h90.79c4.32,0,4.75-1.64,4.75-3.8V50.28c0-2.15-.43-3.87-4.75-3.87H92.57c-4.32,0-3.95,1.72-3.95,3.87v5.27c0,2.16-.37,3.8,3.95,3.8H185L70.49,214.62H48.21c-2.44,0-2.81-.28-2.81,2.37v29.2c0,2.65.37,4,2.81,4,0,0,28.18,0,29.11.05,17.24,46,44.17,62.15,78.87,76.7a32.19,32.19,0,0,0,5.82-4.59,12.72,12.72,0,0,1,9.41-4,12.91,12.91,0,0,1,9.91,4.61,29.06,29.06,0,0,0,21.34,8.86,29.74,29.74,0,0,0,21.48-9.17,12.13,12.13,0,0,1,9.46-4.3,13.06,13.06,0,0,1,9.11,3.74,47.72,47.72,0,0,0,4.65,3.88C281,311,308.93,289.12,324,250.12l32.26.09c2.44,0,3.67-1.36,3.67-4V217C359.89,214.35,358.66,214.62,356.22,214.62ZM209.4,59.34l34.42,63.52A92.71,92.71,0,0,0,216,114s-3.7-39.17-6.6-54.66Zm-14.78,0c-3,15.38-7.08,54-7.08,54a91.56,91.56,0,0,0-26.72,8.4l33.8-62.44ZM75.35,214.62,189.83,59.34l-35.56,66a95.86,95.86,0,0,0-46.76,82.14c0,2,.07,2.83.2,7.15Zm48.11-8.08a77.9,77.9,0,0,1,6.8-31.87L167.71,277A78.32,78.32,0,0,1,123.46,206.55ZM202,284.87a78.7,78.7,0,0,1-22.17-3.19l23.55-68.28,24.13,66a7.32,7.32,0,0,0,.56,1.08A78.44,78.44,0,0,1,202,284.87Zm10.83-115c4.72-.25,9-.75,9-.75,4.23-.49,3.73-6.7-.5-6.45,0,0-12.71,1-20.92,1-7.71,0-20.67-1-20.67-1-4.23-.25-4.73,6.2-.5,6.45,0,0,4,.5,8.23.75l12.23,33.43-17.18,51.41-28.58-84.84c4.73-.25,9-.75,9-.75,4.23-.49,3.73-6.7-.5-6.45,0,0-12.71,1-20.92,1-1.47,0-3.21,0-5.05-.1A78.59,78.59,0,0,1,255,148.79c-.34,0-.67-.06-1-.06-7.71,0-13.18,6.7-13.18,13.9,0,6.45,3.73,11.92,7.71,18.37,3,5.21,6.47,11.91,6.47,21.6q0,10.05-6,25.32L241.14,254Zm28.64,104.41,24-69.16c4.48-11.17,6-20.11,6-28.05a59.8,59.8,0,0,0-.53-8.05,78.23,78.23,0,0,1-29.42,105.26Zm54.41-59.61c.13-4.31.2-5.07.2-7.1a94.87,94.87,0,0,0-45.48-80.91L214.09,59.34,328.78,214.62Z"/><path class="cls-1" d="M192.57,38.58c.91,2,1.63,3.51,3.63,3.51h11.27c2,0,2.73-1.66,3.63-3.66l7.27-14.57c.91-2.11-1.62-3.34-3.63-3.34H204.26V1.11c0-1.46-4.32-1.51-4.32,0V20.52H189.66c-2,0-4.42,1.49-3.63,3.3Z"/><path class="cls-1" d="M61.08,201.94c4.28-4.5,10.9-34.35,10.9-34.35l17.47.84s2.48-.25,1.75-2.26c-1.18-3.24-16.91-33-37.63-11.35C34.78,177.43,0,216.07,0,216.07l16,18.22,19.46-30.21S51.62,211.87,61.08,201.94Z"/><path class="cls-1" d="M308.79,166.17c-.73,2,1.75,2.26,1.75,2.26l17.47-.84s6.62,29.85,10.9,34.35c9.46,9.93,25.6,2.14,25.6,2.14L384,234.29l16-18.22s-34.78-38.64-53.57-61.25C325.7,133.16,310,162.93,308.79,166.17Z"/></g></g></svg>