<?xml version="1.0" encoding="UTF-8"?>
<svg width="396px" height="74px" viewBox="0 0 396 74" version="1.1" xmlns="http://www.w3.org/2000/svg" xmlns:xlink="http://www.w3.org/1999/xlink">
    <title>kinsta-logo-dark</title>
    <defs></defs>
    <g id="Page-1" stroke="none" stroke-width="1" fill="none" fill-rule="evenodd">
        <g id="kinsta-logo-dark">
            <g id="Page-1">
                <g id="logo-dark">
                    <g id="Kinsta-Logo">
                        <g id="Group-2" transform="translate(0.037725, 0.029717)">
                            <g id="logo-dark">
                                <path d="M54.382429,73.6782032 L8.50768066,73.6782032 C3.92020579,73.6782032 0.166817268,69.9169937 0.166817268,65.3199597 L0.166817268,8.48390196 C0.166817268,3.88686788 3.92020579,0.125658182 8.50768066,0.125658182 L54.382429,0.125658182 C58.969904,0.125658182 62.7232927,3.88686788 62.7232927,8.48390196 L62.7232927,65.3199597 C62.7232927,69.9169937 58.969904,73.6782032 54.382429,73.6782032 L54.382429,73.6782032 L54.382429,73.6782032 Z" id="XMLID_1_" fill="#5DC0C0"></path>
                                <path d="M54.7160639,71.672225 L8.1740461,71.672225 C4.96281373,71.672225 2.33544175,69.0393782 2.33544175,65.821454 L2.33544175,7.98240731 C2.33544175,4.76448347 4.96281373,2.13163669 8.1740461,2.13163669 L54.7160639,2.13163669 C57.9272964,2.13163669 60.5546683,4.76448347 60.5546683,7.98240731 L60.5546683,65.821454 C60.5546683,69.0393782 57.9272964,71.672225 54.7160639,71.672225 L54.7160639,71.672225 L54.7160639,71.672225 Z" id="XMLID_18_" fill="#FFFFFF"></path>
                                <path d="M54.382429,18.5973769 L8.50768066,18.5973769 C7.13143817,18.5973769 6.00542162,17.469014 6.00542162,16.0899038 L6.00542162,7.56449513 C6.00542162,6.18538491 7.13143817,5.05702202 8.50768066,5.05702202 L54.382429,5.05702202 C55.7586716,5.05702202 56.8846883,6.18538491 56.8846883,7.56449513 L56.8846883,16.0899038 C56.8846883,17.469014 55.7586716,18.5973769 54.382429,18.5973769 L54.382429,18.5973769 L54.382429,18.5973769 Z" id="XMLID_2_" fill="#5DC0C0"></path>
                                <ellipse id="XMLID_19_" fill="#FFFFFF" cx="50.7124495" cy="12.0779468" rx="2.66907628" ry="2.674638"></ellipse>
                                <path d="M54.382429,35.3138644 L8.50768066,35.3138644 C7.13143817,35.3138644 6.00542162,34.1855015 6.00542162,32.8063913 L6.00542162,24.2809827 C6.00542162,22.9018724 7.13143817,21.7735096 8.50768066,21.7735096 L54.382429,21.7735096 C55.7586716,21.7735096 56.8846883,22.9018724 56.8846883,24.2809827 L56.8846883,32.8063913 C56.8846883,34.1855015 55.7586716,35.3138644 54.382429,35.3138644 L54.382429,35.3138644 L54.382429,35.3138644 Z" id="XMLID_21_" fill="#5DC0C0"></path>
                                <ellipse id="XMLID_20_" fill="#FFFFFF" cx="50.7124495" cy="28.7108519" rx="2.66907628" ry="2.674638"></ellipse>
                                <path d="M54.382429,51.9467693 L8.50768066,51.9467693 C7.13143817,51.9467693 6.00542162,50.8184066 6.00542162,49.4392965 L6.00542162,40.9138878 C6.00542162,39.5347775 7.13143817,38.4064147 8.50768066,38.4064147 L54.382429,38.4064147 C55.7586716,38.4064147 56.8846883,39.5347775 56.8846883,40.9138878 L56.8846883,49.4392965 C56.8846883,50.8184066 55.7586716,51.9467693 54.382429,51.9467693 L54.382429,51.9467693 L54.382429,51.9467693 Z" id="XMLID_25_" fill="#5DC0C0"></path>
                                <ellipse id="XMLID_24_" fill="#FFFFFF" cx="50.7124495" cy="45.4273392" rx="2.66907628" ry="2.674638"></ellipse>
                                <path d="M54.382429,68.7468395 L8.50768066,68.7468395 C7.13143817,68.7468395 6.00542162,67.6184767 6.00542162,66.2393662 L6.00542162,57.7139579 C6.00542162,56.3348474 7.13143817,55.2064846 8.50768066,55.2064846 L54.382429,55.2064846 C55.7586716,55.2064846 56.8846883,56.3348474 56.8846883,57.7139579 L56.8846883,66.2393662 C56.8846883,67.6184767 55.7586716,68.7468395 54.382429,68.7468395 L54.382429,68.7468395 L54.382429,68.7468395 Z" id="XMLID_23_" fill="#5DC0C0"></path>
                                <ellipse id="XMLID_22_" fill="#FFFFFF" cx="50.7124495" cy="62.2274094" rx="2.66907628" ry="2.674638"></ellipse>
                                <g id="XMLID_27_" transform="translate(72.565511, 0.000000)">
                                    <polygon id="XMLID_29_" points="42.0879967 0.0337175009 14.7299648 0.0337175009 14.7299648 36.8517813"></polygon>
                                    <path d="M284.223261,35.3305809 C282.955449,33.9431125 281.479116,32.8314661 279.794262,31.9956417 C278.101067,31.1598173 276.29944,30.7419051 274.389383,30.7419051 C272.479325,30.7419051 270.677699,31.0678766 268.984504,31.7198196 C267.291308,32.3717626 265.823316,33.3329607 264.580528,34.5950555 C263.329398,35.8655085 262.353517,37.4285001 261.636202,39.2923885 C260.918889,41.1562768 260.560231,43.2876289 260.560231,45.6864452 C260.560231,48.085261 260.918889,50.2166131 261.636202,52.0805014 C262.353517,53.9443897 263.337739,55.5073816 264.580528,56.7778346 C265.823316,58.0482876 267.291308,59.0011273 268.984504,59.6530705 C270.677699,60.3050132 272.479325,60.6309847 274.389383,60.6309847 C276.29944,60.6309847 278.101067,60.2130725 279.794262,59.3772481 C281.487457,58.5414237 282.963791,57.4297773 284.223261,56.042309 C285.491071,54.6548407 286.483635,53.0667743 287.21763,51.2697516 C287.951626,49.4727293 288.318624,47.6171991 288.318624,45.7031616 C288.318624,43.7891236 287.951626,41.9252352 287.21763,40.1282128 C286.483635,38.3311905 285.482731,36.7180494 284.223261,35.3305809 L284.223261,35.3305809 L284.223261,35.3305809 Z" id="XMLID_30_"></path>
                                    <polygon id="XMLID_31_" fill="#5E6768" points="14.7299648 36.8517813 14.7299648 0.0337175009 13.5956073 0.0337175009 0.0250225901 0.0337175009 0.0250225901 73.6614868 14.7299648 73.6614868 14.7299648 58.9259031 25.9484259 43.8810642 42.0879967 73.6614868 58.7947459 73.6614868 35.5821232 31.1013096 58.7947459 0.0337175009 42.0879967 0.0337175009"></polygon>
                                    <path d="M76.6441935,2.21521912 C76.0019469,1.58835084 75.2596102,1.08685622 74.4005013,0.71909349 C73.5413922,0.351330764 72.6322381,0.159091157 71.6563575,0.159091157 C70.6804764,0.159091157 69.7713223,0.34297252 68.9122132,0.71909349 C68.0531044,1.08685622 67.3107676,1.58835084 66.6852027,2.21521912 C66.0596378,2.8420874 65.559186,3.5859711 65.1838474,4.44687023 C64.8168492,5.30776931 64.6250095,6.21045965 64.6250095,7.15494121 C64.6250095,8.1328557 64.8085083,9.04390429 65.1838474,9.88808692 C65.5508452,10.7322695 66.051297,11.467795 66.6852027,12.1030215 C67.3107676,12.7298898 68.0531044,13.2313844 68.9122132,13.5991471 C69.7713223,13.9669099 70.6804764,14.1591495 71.6563575,14.1591495 C72.6322381,14.1591495 73.5413922,13.9752681 74.4005013,13.5991471 C75.2596102,13.2230262 76.0019469,12.7298898 76.6441935,12.1030215 C77.2864401,11.4761532 77.7868919,10.7406277 78.1622309,9.88808692 C78.5292286,9.04390429 78.7210684,8.1328557 78.7210684,7.15494121 C78.7210684,6.21045965 78.5375695,5.29941106 78.1622309,4.44687023 C77.7952327,3.5859711 77.2864401,2.8420874 76.6441935,2.21521912 L76.6441935,2.21521912 L76.6441935,2.21521912 Z" id="XMLID_36_" fill="#5E6768"></path>
                                    <rect id="XMLID_37_" fill="#5E6768" x="64.6333503" y="18.6726011" width="14.0877182" height="54.9888858"></rect>
                                    <path d="M131.235144,24.807552 C129.016475,22.5675427 126.414126,20.8039533 123.444778,19.5167837 C120.47543,18.2379724 117.314243,17.5943877 113.969557,17.5943877 C110.858415,17.5943877 107.880727,18.15439 105.028152,19.2660364 C102.175576,20.3776828 99.6232723,21.9657491 97.371239,24.0135189 L92.7587415,18.6726011 L89.380692,18.6726011 L89.380692,73.6614868 L103.36832,73.6614868 L103.36832,42.2428486 C103.36832,40.8052306 103.643568,39.4428369 104.185725,38.1640256 C104.72788,36.876856 105.478559,35.7568513 106.437758,34.8040116 C107.396957,33.8511718 108.522974,33.0905716 109.815807,32.5472858 C111.116983,32.0039999 112.493224,31.7281779 113.969557,31.7281779 C115.404186,31.7281779 116.755405,32.0039999 118.014876,32.5472858 C119.282687,33.0989298 120.392022,33.8511718 121.342881,34.8040116 C122.293739,35.7568513 123.052757,36.8852143 123.594914,38.1640256 C124.137069,39.4511951 124.412318,40.8052306 124.412318,42.2428486 L124.412318,73.6614868 L138.399946,73.6614868 L138.399946,42.2428486 C138.399946,38.8577598 137.7577,35.6649107 136.481547,32.6643012 C135.205396,29.6720499 133.453814,27.0475614 131.235144,24.807552 L131.235144,24.807552 L131.235144,24.807552 Z" id="XMLID_38_" fill="#5E6768"></path>
                                    <path d="M190.772227,44.3992753 C189.204145,42.9616574 187.352474,41.8416528 185.242234,41.0392614 C183.131996,40.23687 180.871623,39.8356743 178.477795,39.8356743 L163.931329,39.8356743 C162.97213,39.8356743 162.154725,39.4846281 161.470774,38.7825356 C160.786824,38.0804431 160.444848,37.2362605 160.444848,36.2416295 C160.444848,35.2804315 160.786824,34.4613236 161.470774,33.7759476 C162.154725,33.0905716 162.97213,32.7478836 163.931329,32.7478836 L192.256901,32.7478836 L192.256901,18.7729 L163.922989,18.7729 C161.495797,18.7729 159.227082,19.2242452 157.108503,20.1352938 C154.989923,21.0379841 153.146593,22.2833624 151.578511,23.8547123 C150.010428,25.4260621 148.767639,27.2815922 147.866826,29.3962279 C146.957672,31.5192217 146.507265,33.7926641 146.507265,36.224913 C146.507265,38.6571619 146.957672,40.9306043 147.866826,43.053598 C148.767639,45.1765919 150.010428,47.032122 151.578511,48.6201884 C153.146593,50.2082549 154.998264,51.4703497 157.108503,52.3981148 C159.227082,53.3258798 161.495797,53.7855831 163.922989,53.7855831 L178.469454,53.7855831 C179.428653,53.7855831 180.246058,53.9360315 180.930009,54.2452867 C181.613959,54.5545415 181.955934,55.2064846 181.955934,56.1927575 C181.955934,57.1539554 181.613959,57.9730634 180.930009,58.6584393 C180.246058,59.3438153 179.428653,59.6865033 178.469454,59.6865033 L146.498925,59.6865033 L146.498925,73.6531286 L178.469454,73.6531286 C180.863282,73.6531286 183.115315,73.2017835 185.233894,72.2907349 C187.352474,71.3880444 189.195804,70.1343078 190.763886,68.5462418 C192.331969,66.9581754 193.583098,65.1110034 194.500594,63.004726 C195.418088,60.8984485 195.885177,58.6333647 195.885177,56.2011157 C195.885177,53.8022995 195.426429,51.5957232 194.500594,49.5813867 C193.574757,47.5670499 192.340309,45.8368932 190.772227,44.3992753 L190.772227,44.3992753 L190.772227,44.3992753 Z" id="XMLID_39_" fill="#5E6768"></path>
                                    <path d="M206.294574,18.7729 L199.480089,18.7729 L199.480089,32.7395254 L206.294574,32.7395254 L206.294574,49.0631753 C206.294574,52.448264 206.936821,55.632755 208.212973,58.6166479 C209.489125,61.592183 211.249046,64.208313 213.492739,66.4483225 C215.728091,68.6883316 218.33044,70.4519211 221.308129,71.7390906 C224.277475,73.0262605 227.455345,73.6614868 230.841735,73.6614868 L241.451314,73.6614868 L241.451314,59.6948615 L230.841735,59.6948615 C229.373743,59.6948615 227.98916,59.4106813 226.687985,58.8506788 C225.38681,58.2906764 224.260794,57.521718 223.309935,56.5688783 C222.359077,55.6160386 221.600058,54.4876758 221.057902,53.2088642 C220.507405,51.9300529 220.240498,50.5509428 220.240498,49.0715339 L220.240498,32.7395254 L241.451314,32.7395254 L241.451314,18.7729 L220.240498,18.7729 L220.240498,0.0337175009 L206.302915,0.0337175009 L206.302915,18.7729 L206.294574,18.7729 L206.294574,18.7729 Z" id="XMLID_40_" fill="#5E6768"></path>
                                    <path d="M293.598391,24.2726244 C292.297216,23.0356044 290.904292,21.8905249 289.419618,20.829028 C287.934945,19.767531 286.375203,18.839766 284.732053,18.0540911 C283.088903,17.2684161 281.404049,16.6499061 279.660809,16.2069192 C277.917568,15.7639323 276.157646,15.5382597 274.381041,15.5382597 C270.519222,15.5382597 266.890947,16.2487104 263.496215,17.6696118 C260.101484,19.0905133 257.123796,21.0797753 254.579832,23.6541144 C252.035869,26.2284535 250.025721,29.2959289 248.557729,32.8732573 C247.089737,36.4505856 246.355741,40.3789602 246.355741,44.6583808 C246.355741,49.247057 247.089737,53.334238 248.557729,56.9282827 C250.025721,60.5223277 252.035869,63.5563702 254.579832,66.0387685 C257.123796,68.5211668 260.093143,70.4101301 263.496215,71.714016 C266.899287,73.0179023 270.527563,73.6614868 274.381041,73.6614868 C276.157646,73.6614868 277.909227,73.4358141 279.635786,72.9928272 C281.362344,72.5498404 283.038858,71.9396887 284.682008,71.1707303 C286.325158,70.4017719 287.8849,69.4907233 289.369573,68.4459429 C290.854247,67.4011622 292.263853,66.2811576 293.598391,65.0859288 L299.028293,72.6334228 L302.406343,72.6334228 L302.406343,17.7531943 L299.028293,17.7531943 L293.598391,24.2726244 L293.598391,24.2726244 L293.598391,24.2726244 Z M287.21763,50.2249713 C286.483635,52.0219936 285.482731,53.61006 284.223261,54.9975287 C282.955449,56.384997 281.479116,57.4966434 279.794262,58.3324678 C278.101067,59.1682922 276.29944,59.5862044 274.389383,59.5862044 C272.479325,59.5862044 270.677699,59.2602329 268.984504,58.6082897 C267.291308,57.956347 265.823316,57.0035069 264.580528,55.7330539 C263.329398,54.4626008 262.353517,52.8996094 261.636202,51.0357211 C260.918889,49.1718327 260.560231,47.0404806 260.560231,44.6416644 C260.560231,42.2428486 260.918889,40.1114964 261.636202,38.247608 C262.353517,36.3837196 263.337739,34.8207281 264.580528,33.550275 C265.823316,32.2798219 267.291308,31.3269822 268.984504,30.6750392 C270.677699,30.0230962 272.479325,29.6971246 274.389383,29.6971246 C276.29944,29.6971246 278.101067,30.1150368 279.794262,30.9508612 C281.487457,31.7866856 282.963791,32.898332 284.223261,34.2858004 C285.491071,35.6732689 286.483635,37.2613352 287.21763,39.0583577 C287.951626,40.8553801 288.318624,42.71091 288.318624,44.6333062 C288.318624,46.5724188 287.951626,48.4279489 287.21763,50.2249713 L287.21763,50.2249713 L287.21763,50.2249713 Z" id="XMLID_43_" fill="#5E6768"></path>
                                </g>
                                <rect id="_x3C_Slice_x3E_" x="0" y="0.125658182" width="398.192818" height="74.7226992"></rect>
                            </g>
                            <g id="RegisteredTM" transform="translate(382.852424, 59.797540)">
                                <g id="Group">
                                    <ellipse id="Oval" stroke="#5E6768" cx="6.02463305" cy="6.0396782" rx="5.98503741" ry="6"></ellipse>
                                    <path d="M5.73273025,5.93495613 C6.10928619,5.93495613 6.38314503,5.85948803 6.54746034,5.71541252 C6.71177565,5.57819777 6.80077976,5.34493271 6.80077976,5.0156173 C6.80077976,4.69316261 6.71177565,4.46675828 6.54746034,4.3226828 C6.38314503,4.18546802 6.10928619,4.11686065 5.73273025,4.11686065 L4.9659255,4.11686065 L4.9659255,5.93495613 L5.73273025,5.93495613 M4.9659255,7.19047114 L4.9659255,9.8661588 L3.14476415,9.8661588 L3.14476415,2.79273829 L5.92443147,2.79273829 C6.85555154,2.79273829 7.53335219,2.95053526 7.96467988,3.26612919 C8.40285402,3.57486239 8.61509465,4.06883549 8.61509465,4.74804853 C8.61509465,5.21457869 8.50555109,5.59877999 8.27961754,5.90065246 C8.05368399,6.19566417 7.71820691,6.42206851 7.25949336,6.55928325 C7.51281278,6.6210299 7.73189987,6.75138392 7.93044751,6.95034531 C8.12899518,7.14930671 8.32754286,7.45117914 8.5260905,7.86282342 L9.51882885,9.8661588 L7.58127748,9.8661588 L6.7186221,8.10980997 C6.54746034,7.75991234 6.36945208,7.51292579 6.19144385,7.38943253 C6.01343559,7.25907851 5.77380909,7.19047114 5.47941083,7.19047114 L4.9659255,7.19047114" id="Shape" fill="#5E6768"></path>
                                </g>
                            </g>
                        </g>
                    </g>
                </g>
            </g>
        </g>
    </g>
</svg>
