<?xml version="1.0" encoding="UTF-8" standalone="no"?>
<svg width="787px" height="574px" viewBox="0 0 787 574" version="1.1" xmlns="http://www.w3.org/2000/svg" xmlns:xlink="http://www.w3.org/1999/xlink" xmlns:sketch="http://www.bohemiancoding.com/sketch/ns">
    <!-- Generator: Sketch 3.2.2 (9983) - http://www.bohemiancoding.com/sketch -->
    <title>logotype</title>
    <desc>Created with Sketch.</desc>
    <defs></defs>
    <g id="Page-1" stroke="none" stroke-width="1" fill="none" fill-rule="evenodd" sketch:type="MSPage">
        <g id="Artboard" sketch:type="MSArtboardGroup" transform="translate(0.552985, 0.500000)" fill="#6AA5CD">
            <path d="M746.557417,53.0218309 L741.730995,53.0218309 L741.730995,38.8467264 C742.907471,38.6573424 744.416804,38.4966529 746.557417,38.4966529 C754.058171,38.4966529 756.761197,42.1465989 756.761197,45.8252393 C756.761197,51.0132128 752.066769,53.0218309 746.557417,53.0218309 L746.557417,53.0218309 Z M755.601937,55.7019012 L755.601937,55.3518278 C760.089764,54.0031843 763.768404,50.6975728 763.768404,45.153787 C763.768404,41.1422898 762.436978,38.2957911 759.906119,36.482296 C757.444127,34.6171506 753.248985,33.3029405 746.896013,33.3029405 C741.868729,33.3029405 738.551639,33.8079645 735.045166,34.3244663 L735.045166,76.2529333 L741.730995,76.2529333 L741.730995,58.1811098 L746.38525,58.1811098 C751.733913,58.1811098 754.436939,60.1839889 755.424031,65.5556075 C756.244695,71.0477431 757.266221,74.9215065 758.236096,76.2529333 L765.283476,76.2529333 C764.617763,74.9215065 763.624932,72.3906478 762.597667,65.8942031 C761.79422,59.7248762 759.263361,56.3503979 755.601937,55.7019012 L755.601937,55.7019012 Z M618.631403,348.478068 C617.868128,348.489546 616.025939,348.512501 615.107713,348.512501 L556.863529,348.512501 C523.67542,348.512501 496.662376,321.545369 496.662376,288.311349 L496.662376,264.85069 C496.662376,231.651103 523.67542,204.63806 556.863529,204.63806 L615.107713,204.63806 C615.968549,204.63806 616.794952,204.63806 617.535272,204.718405 C617.661528,204.804488 617.747611,204.087125 617.747611,203.805918 C617.707439,204.500326 617.661528,208.270789 617.833695,221.808875 C618.229679,251.760239 619.159383,326.015979 618.264113,347.226986 C618.229679,348.701885 619.021649,348.489546 618.631403,348.478068 L618.631403,348.478068 Z M360.397728,288.311349 C360.397728,321.545369 333.419118,348.512501 300.231009,348.512501 L276.753134,348.512501 C243.53633,348.512501 216.511809,321.545369 216.511809,288.311349 L216.511809,264.85069 C216.511809,231.651103 243.53633,204.63806 276.753134,204.63806 L300.231009,204.63806 C333.419118,204.63806 360.397728,231.651103 360.397728,264.85069 L360.397728,288.311349 L360.397728,288.311349 Z M615.107713,124.718017 L556.863529,124.718017 C499.543308,124.718017 450.240344,159.375287 428.535791,208.752858 C406.848455,159.375287 357.539751,124.718017 300.231009,124.718017 L276.753134,124.718017 C199.46725,124.718017 136.608983,187.59924 136.608983,264.85069 L136.608983,288.311349 C136.608983,303.249728 138.784029,317.487961 143.111166,330.980135 C143.633407,332.908409 145.200129,336.701827 146.284783,340.351773 C140.454052,341.057659 134.169947,341.476599 127.489857,341.476599 C101.090877,341.476599 87.1625455,329.321591 86.7378662,305.97571 C86.5484822,296.391732 86.6403048,17.7964092 86.6403048,17.7964092 C86.6403048,8.10913132 78.7894777,0.252565297 69.1079387,0.218131845 L17.6528832,5.33136325e-05 C12.9641948,-0.0114245038 8.47636816,1.83076519 5.14780111,5.15359333 C1.83645079,8.43051021 0,12.9412925 0,17.6127641 C0,17.6127641 0.281206527,303.071822 0.258250892,307.129231 C0.84361958,368.489643 41.8596001,428.053776 127.489857,428.053776 C149.699434,428.053776 177.383929,425.012154 203.312319,414.429607 L210.663861,411.674931 C230.348318,422.30339 252.821884,428.444022 276.753134,428.444022 L300.231009,428.444022 C357.539751,428.444022 406.848455,393.821186 428.535791,344.397704 C450.240344,393.821186 499.543308,428.444022 556.863529,428.444022 L617.563966,428.444022 L618.407586,428.444022 C618.000123,428.748184 618.229679,432.656381 618.229679,430.877319 C617.931256,449.54025 610.671537,492.914922 549.448859,492.914922 C526.762953,492.914922 485.563327,489.632266 463.795646,467.921975 C462.274835,466.395425 460.111267,465.689539 458.010826,466.062568 C455.881691,466.452814 454.068196,467.818674 453.172926,469.769903 L427.388009,524.570743 C426.211533,527.084385 426.75099,530.074356 428.707958,532.037063 C469.534555,572.812009 508.36975,572.812009 549.448859,572.812009 C649.701855,572.812009 696.772384,500.180381 698.092333,432.679336 C698.017727,435.715219 698.21285,435.829997 698.21285,432.771159 L698.21285,430.986358 C698.21285,434.619088 698.293195,432.759681 698.293195,430.986358 L698.539968,236.064324 L698.608835,227.404311 C698.958908,196.947922 699.274548,170.640765 677.145316,147.68513 C662.476666,132.425372 641.609994,124.718017 615.107713,124.718017 L615.107713,124.718017 Z M748.916109,86.2902846 C732.198668,86.2902846 718.683538,72.2127416 718.683538,54.3532577 C718.683538,36.797936 732.198668,22.5998758 748.766897,22.5998758 L748.916109,22.5998758 C765.610594,22.5998758 778.999468,36.797936 778.999468,54.5082082 C778.999468,72.2127416 765.610594,86.4452352 748.916109,86.2902846 L748.916109,86.2902846 Z M748.916109,16.7806224 L748.766897,16.7806224 C728.175693,16.7806224 711.486946,33.4693689 711.486946,54.3532577 C711.486946,75.581481 728.175693,92.1095381 748.766897,92.1095381 C769.461402,92.1095381 785.82303,75.581481 785.82303,54.3532577 C785.82303,33.4693689 769.461402,16.7806224 748.916109,16.7806224 L748.916109,16.7806224 Z" id="logotype" sketch:type="MSShapeGroup"></path>
        </g>
    </g>
</svg>